<?xml version="1.0" encoding="UTF-8" standalone="no"?>
<!-- Created with Inkscape (http://www.inkscape.org/) -->

<svg
   version="1.1"
   id="svg2"
   xml:space="preserve"
   width="4000"
   height="2666.6667"
   viewBox="0 0 4000 2666.6667"
   sodipodi:docname="High_five.eps"
   xmlns:inkscape="http://www.inkscape.org/namespaces/inkscape"
   xmlns:sodipodi="http://sodipodi.sourceforge.net/DTD/sodipodi-0.dtd"
   xmlns="http://www.w3.org/2000/svg"
   xmlns:svg="http://www.w3.org/2000/svg"><defs
     id="defs6" /><sodipodi:namedview
     id="namedview4"
     pagecolor="#ffffff"
     bordercolor="#666666"
     borderopacity="1.0"
     inkscape:pageshadow="2"
     inkscape:pageopacity="0.0"
     inkscape:pagecheckerboard="0" /><g
     id="g8"
     inkscape:groupmode="layer"
     inkscape:label="ink_ext_XXXXXX"
     transform="matrix(1.3333333,0,0,-1.3333333,0,2666.6667)"><g
       id="g10"
       transform="scale(0.1)"><path
         d="M 0,0 H 30000 V 20000 H 0 Z"
         style="fill:#ffffff;fill-opacity:1;fill-rule:nonzero;stroke:none"
         id="path12" /><path
         d="m 4447.55,8174.6 -21.29,1.1 c -4.47,-89.1 -6.69,-176.7 -6.69,-262.8 -0.01,-588.6 103.36,-1107 295.46,-1558 288.11,-676.4 775.91,-1200.5 1410.98,-1582.6 635.1,-382.2 1417.36,-622.8 2296.27,-734.1 692.45,-87.7 1389.43,-123 2088.32,-123 2049.2,0.1 4115.1,303.2 6132.7,479.2 979.6,85.4 1961.9,150.5 2945.2,150.5 40,0 80,-0.1 119.9,-0.4 376.8,-2 766.6,-44 1158.7,-85.6 392.1,-41.6 786.5,-82.8 1172.7,-82.8 213.2,0 423.9,12.5 630.3,44.6 1051.1,163.2 1878.2,733.9 2441.5,1504.3 563.4,770.4 863.9,1740.4 863.9,2704.6 0,258.1 -21.5,515.7 -65.3,769.1 -111.5,644.4 -371.4,1275.4 -785,1746.4 -206.7,235.5 -452,430.9 -736.2,567.4 -284.1,136.5 -607.1,214 -968.5,214 -47.3,0 -95.2,-1.4 -143.8,-4.1 -537.5,-29.8 -1043.7,-161.3 -1542.8,-316.6 -499.1,-155.2 -991.2,-334.2 -1500.5,-459.6 -579.9,-142.9 -1175.6,-214.1 -1771.3,-214.1 -782.4,0 -1564.8,122.8 -2311.7,366.9 -657.1,215.2 -1285.1,520.9 -1927.2,789.3 -1278.8,533.8 -2632.1,919.3 -4011.4,940.5 -38.7,0.6 -77.4,0.9 -116.1,0.9 -1341.74,0 -2704.87,-365.7 -3790.12,-1191.4 C 5127.53,10941.9 4496.9,9585.9 4426.26,8175.7 l 21.29,-1.1 21.3,-1 c 70.19,1399 695.39,2742.7 1862.56,3630.7 1076.17,819 2430.15,1182.8 3764.29,1182.8 38.5,0 77,-0.3 115.4,-0.9 1371.7,-21.1 2719.9,-404.8 3995.7,-937.2 640.6,-267.7 1269.5,-574.1 1930.4,-790.6 751.2,-245.5 1538.1,-368.9 2324.9,-368.9 599.1,0 1198.2,71.5 1781.5,215.3 512.3,126.2 1005.1,305.5 1502.9,460.3 497.9,154.9 1000.5,285.3 1532.5,314.8 47.8,2.6 95,3.9 141.5,3.9 355.3,0 671.6,-76 950,-209.7 417.7,-200.6 750.6,-531.6 1000,-932.5 249.3,-400.9 414.9,-871.6 497.7,-1350.2 43.3,-250.8 64.7,-506.1 64.7,-761.8 0,-955.4 -298,-1917 -855.7,-2679.4 -557.7,-762.5 -1374.3,-1325.9 -2413.7,-1487.4 -203.7,-31.6 -412.2,-44.1 -623.7,-44.1 -383.2,0 -776.2,41 -1168.2,82.6 -392.1,41.6 -783.2,83.8 -1162.9,85.9 -40.1,0.2 -80.2,0.3 -120.2,0.3 -985.1,0 -1968.7,-65.1 -2948.9,-150.6 -2019.3,-176.2 -4084,-479.1 -6129,-479 -697.45,0 -1392.64,35.2 -2082.95,122.6 -1166.05,147.6 -2157.81,523.9 -2857.16,1153.3 -349.73,314.7 -626.59,692.7 -816.23,1137.9 -189.62,445.1 -292.04,957.5 -292.05,1541.2 0,85.3 2.2,172.2 6.64,260.7 l -21.3,1"
         style="fill:#f0f0f0;fill-opacity:1;fill-rule:nonzero;stroke:none"
         id="path14" /><path
         d="M 25449.9,7415.6 C 25575.4,4929.7 23904,3653.4 21493.3,3350.2 c -2704.2,-340.1 -5480.8,118.6 -8173.6,351.9 -1014.4,87.9 -2032.1,154 -3051,148.4 -960.18,-5.2 -1999.6,-268 -2942.84,-122.6 -2357.83,363.7 -3572.9,2783.2 -3205.5,4893.4 171.65,985.8 550.68,2076.4 1402.7,2675.1 856.96,602.1 1853.76,448.1 2793.24,186.6 1710.9,-476.1 3575.1,-1369.5 5387.9,-1019.9 1038.9,200.4 1944.4,788.7 2931.1,1140.8 983.8,351 2034.9,569.7 3080.9,586 1367.8,21.4 2766.5,-336 3872.6,-1171.8 1166.4,-881.4 1791.1,-2214.9 1861.1,-3602.5"
         style="fill:#f0f0f0;fill-opacity:1;fill-rule:nonzero;stroke:none"
         id="path16" /><path
         d="m 23718.9,5330.9 c 0,0 -942.3,-664.5 -2024.7,-88.7 l 1012.3,564.9 1012.4,-476.2"
         style="fill:#6f3428;fill-opacity:1;fill-rule:nonzero;stroke:none"
         id="path18" /><path
         d="m 16781.2,9772.2 c 0,0 -916.8,-1719.4 -629.8,-2227.3 l 1043.9,579.5 -414.1,1647.8"
         style="fill:#6f3428;fill-opacity:1;fill-rule:nonzero;stroke:none"
         id="path20" /><path
         d="m 16386.5,8026.7 c -114.7,85.7 -225.2,182 -331.4,286.9 -208.9,207.3 -401.2,447.8 -576.5,704.5 v 0.4 c -117.7,172.3 -227.7,352.3 -329.6,534.4 -294.7,525.3 -525,1069 -688.7,1504.4 -171,454.2 -270.4,791.1 -296.8,868.2 -3,9 -5.1,14.5 -6.4,16.2 l 495.9,1423.9 c 239.7,383.8 374,-861.8 374,-861.8 66.1,38.8 146.3,152.6 193.6,214.1 53.3,69.5 94.3,-40.6 101.5,-79.8 41.4,-229 -142.8,-664.4 -142.8,-664.4 l 1182.4,-1733 c 72.5,-106.2 153.6,-206.4 241.4,-298.9 56.3,-59.7 116,-116.5 178.3,-169.8 104.9,-445.6 94.2,-1304.8 -394.9,-1745.3"
         style="fill:#f9b384;fill-opacity:1;fill-rule:nonzero;stroke:none"
         id="path22" /><path
         d="m 16386.5,8026.7 c -114.7,85.7 -225.2,182 -331.4,286.9 369.8,423.6 652.9,1126 725.4,1454.7 -0.7,0.7 -1.5,1.4 -2.2,2.1 -8.6,8.2 -16.6,16.4 -15.5,16.4 0.8,0 6,-4 18.6,-14.8 v 0 0 0 0 c -47.8,-354.4 -171.2,-1144.5 -394.5,-1745 -0.1,-0.1 -0.3,-0.2 -0.4,-0.3"
         style="fill:#eb9b76;fill-opacity:1;fill-rule:nonzero;stroke:none"
         id="path24" /><path
         d="m 23719,5330.7 c -646,125.8 -1155.2,117.7 -1585,32.5 -156.1,-31.2 -301.5,-72.1 -439.7,-121.2 l -130.1,-466 -256.7,-921.6 -166.7,-598.7 -151.8,-543.7 -85.3,-306.6 h -4582.5 l 725,4726.6 -894.7,412.8 c 57.6,84.8 110.5,184.6 159.5,295.1 271.6,611.9 417.5,1539.4 470.4,1932.1 255.8,-220 557.3,-384.6 886.1,-478.4 390.2,-111.3 860.5,-207.7 1300.6,-197.4 15.4,0.4 30.3,0.8 45.2,1.2 1017.9,39.7 1472.1,-269.5 1472.1,-269.5 230.2,-45.6 830.7,-276.3 1354.7,-507 231.2,-101.1 447.4,-202.6 611.1,-287.8 440.1,-229.9 759.5,-638.4 878,-1120.7 L 23719,5330.7"
         style="fill:#ee6f57;fill-opacity:1;fill-rule:nonzero;stroke:none"
         id="path26" /><path
         d="m 21694.3,5242 275.9,989.8 163.8,-868.6 v 0 c -18.9,-3.8 -37.7,-7.7 -56.2,-11.8 -135,-29.4 -262,-66.2 -383.4,-109.3 -0.1,0 -0.1,-0.1 -0.1,-0.1"
         style="fill:#c85d49;fill-opacity:1;fill-rule:nonzero;stroke:none"
         id="path28" /><path
         d="m 15478.6,9018.5 c -0.8,1.2 -1.6,2.4 -2.5,3.6 0.9,-1.2 1.7,-2.4 2.5,-3.6 v 0 m -3.2,4.8 c -0.4,0.5 -0.7,1 -1.1,1.5 0.4,-0.5 0.7,-1 1.1,-1.5 m -426.7,713.5 c -0.4,0.8 -0.8,1.5 -1.2,2.2 0,0 0,0 0,0.1 0.4,-0.8 0.8,-1.5 1.2,-2.3"
         style="fill:#efc9c2;fill-opacity:1;fill-rule:nonzero;stroke:none"
         id="path30" /><path
         d="m 15478.6,9018.5 v 0 c -0.8,1.2 -1.6,2.4 -2.5,3.6 -0.2,0.4 -0.5,0.8 -0.7,1.2 -0.4,0.5 -0.7,1 -1.1,1.5 -115.4,169.5 -208,325.8 -425.6,712 -0.4,0.8 -0.8,1.5 -1.2,2.3 35,11.9 68.5,17.5 100.5,17.5 284.9,0 441.4,-443.2 330.6,-738.1"
         style="fill:#f69e76;fill-opacity:1;fill-rule:nonzero;stroke:none"
         id="path32" /><path
         d="m 21307.5,3854.4 v 0 l 256.7,921.6 49.8,178.3 v 0 l -306.5,-1099.9"
         style="fill:#c89186;fill-opacity:1;fill-rule:nonzero;stroke:none"
         id="path34" /><path
         d="m 17873.9,3483 79,340.4 c 2029.9,152.8 3007.2,547.2 3661.1,1130.9 l -49.8,-178.3 -256.7,-921.6 -1578.6,-242.6 c -86.2,-13.2 -171.5,-32.4 -255.5,-57.2 -159.6,-47 -308.8,-63.7 -446.9,-63.7 -281.1,0 -515.8,69.2 -696.8,92.3 -29,3.8 -58,5.6 -87,5.6 -129.7,0 -257.6,-37 -368.8,-105.8"
         style="fill:#c85d49;fill-opacity:1;fill-rule:nonzero;stroke:none"
         id="path36" /><path
         d="m 14460.3,11057.3 v 0 c -171,454.2 -270.4,791.1 -296.8,868.2 l 769.4,476.6 c 29.4,-433.7 -313.6,-1051.8 -472.6,-1344.8"
         style="fill:#eb9b76;fill-opacity:1;fill-rule:nonzero;stroke:none"
         id="path38" /><path
         d="m 19326.4,8030.3 c 44.9,-159.6 141.5,-299 268.1,-399.7 127.1,-100.4 280.2,-166.5 440,-195.1 159.7,-29 325.9,-21.4 483.4,20.8 79,20.7 155.7,50.8 228.1,89.7 73.4,37.3 141.6,84.5 206.9,136.6 l 22.7,-24.3 c -58.7,-62.8 -126.9,-117 -199.9,-164 -74,-45.5 -153.6,-82.4 -236.7,-109.5 -166.6,-53.8 -347,-64.6 -519.8,-32.8 -172.3,32.1 -339.1,106.1 -471.1,223.5 -65.7,58.5 -123.3,126.4 -167.2,202.5 -43,76.4 -74.1,159.5 -87.1,245.2 l 32.6,7.1"
         style="fill:#ae5140;fill-opacity:1;fill-rule:nonzero;stroke:none"
         id="path40" /><path
         d="m 21195.4,9659.5 -127.5,-996.6 c -47.4,-372.3 -369.7,-648.6 -745,-638.4 -402.1,10.7 -712.1,341.2 -712.1,729.7 0,37.9 2.9,76.7 8.9,115.5 l 23,145.8 90,568.5 506.6,26 956.1,49.5"
         style="fill:#f9b384;fill-opacity:1;fill-rule:nonzero;stroke:none"
         id="path42" /><path
         d="m 19421.1,11301.4 c 14.2,146.9 82.9,322 161.2,480.8 149.8,303.5 439.6,514.2 774.5,562.5 503.1,72.6 1153.7,1.8 1507.9,-481.4 399.4,-544.8 67.5,-1634.1 -360.7,-1727 -428.2,-92.9 -2082.9,1165.1 -2082.9,1165.1"
         style="fill:#102048;fill-opacity:1;fill-rule:nonzero;stroke:none"
         id="path44" /><path
         d="m 20732.7,9403.6 c -171,-162 -565,-541.1 -1113,-533.9 l 113,714.3 506.6,26 493.4,-206.4"
         style="fill:#e28b6d;fill-opacity:1;fill-rule:nonzero;stroke:none"
         id="path46" /><path
         d="m 21461.9,11044.5 -76.3,-397 -18.8,-97.2 -75.1,-390.6 -43,-223.9 -53.3,-276.3 -260.6,-156.5 c 0,0 -71.2,-47.8 -202.1,-99.4 l -0.4,-0.4 c -197.5,-78.5 -530.5,-165.5 -957.8,-109.2 -29.9,3.8 -58,10.7 -84.4,20.1 -201.3,68.6 -304.5,280.6 -349.7,544.5 -33.3,194 -35.8,416.2 -23.5,630.7 19.2,336.5 75.1,654.1 104.1,811.9 448.2,400.5 1060.1,473.4 1513.8,562.1 l 527.1,-818.8"
         style="fill:#f9b384;fill-opacity:1;fill-rule:nonzero;stroke:none"
         id="path48" /><path
         d="m 19421.1,11301.4 c 713.9,561.9 1675.6,-7.4 1675.6,-7.4 0,0 -147,-885 137.3,-811.9 284.3,73 572.7,664.7 572.7,664.7 l -650.7,938.1 -1423.4,-245.2 -311.5,-538.3"
         style="fill:#102048;fill-opacity:1;fill-rule:nonzero;stroke:none"
         id="path50" /><path
         d="m 21197.2,10453 c 139.8,245.6 412.1,324.4 558.5,138.1 146.3,-186.3 152,-772.5 -567.8,-645.9 l 9.3,507.8"
         style="fill:#f9b384;fill-opacity:1;fill-rule:nonzero;stroke:none"
         id="path52" /><path
         d="m 20000.4,10647 c -46.4,-125.2 -118.1,-236.7 -164.8,-354.1 -5.4,-14.2 -12.4,-30.5 -15.8,-43 -3.8,-12.4 -5.8,-24.5 -3.7,-33.7 0.4,-9.9 6,-16.8 12.9,-24.9 8.7,-7.2 19.3,-14.3 32.8,-19.4 53.7,-20.6 120.2,-25.7 184.9,-32.1 l 0.7,-25 c -65.6,-8.7 -133,-16.5 -204.5,4.2 -17.8,4.7 -36,14.1 -53.1,27.2 -16,14.3 -31.9,35 -35,58.3 -4.8,22.9 -1,44.3 4.2,63.1 5.2,19 10.9,33.1 17.6,49.3 52.5,126 130.5,232.1 201.4,341.3 l 22.4,-11.2"
         style="fill:#e28b6d;fill-opacity:1;fill-rule:nonzero;stroke:none"
         id="path54" /><path
         d="m 20479,10620.6 c -17.5,-59 -65.7,-96.8 -107.6,-84.4 -41.9,12.4 -61.7,70.3 -44.2,129.3 17.4,59.1 65.6,96.9 107.5,84.5 41.9,-12.4 61.7,-70.3 44.3,-129.4"
         style="fill:#102048;fill-opacity:1;fill-rule:nonzero;stroke:none"
         id="path56" /><path
         d="m 19720.7,10656.6 c -17.5,-59.1 -65.6,-96.9 -107.5,-84.5 -41.9,12.4 -61.8,70.3 -44.3,129.4 17.5,59 65.6,96.8 107.5,84.4 41.9,-12.4 61.8,-70.3 44.3,-129.3"
         style="fill:#102048;fill-opacity:1;fill-rule:nonzero;stroke:none"
         id="path58" /><path
         d="m 20212.2,10848.4 c 36,34.2 78.6,62.6 126.7,81.6 47.9,19.2 102,27.3 155.1,20.9 53.1,-6.4 103.6,-27.7 145.4,-58 42,-30.2 76.2,-68.3 102.7,-110.4 l -18.8,-16.5 c -37.9,29.6 -74.8,57.7 -114.1,79.5 -39.2,21.7 -80.5,36.7 -123.1,42.2 -42.6,5.8 -86.5,1.6 -130,-9.5 -43.6,-11.3 -86.4,-29.9 -129.7,-50.3 l -14.2,20.5"
         style="fill:#102048;fill-opacity:1;fill-rule:nonzero;stroke:none"
         id="path60" /><path
         d="m 19836.4,10845 c -34.9,55.5 -91.8,81.9 -150,81.8 -29,-0.1 -58.2,-6.9 -86.2,-19.2 -28.1,-12.3 -54.8,-30.1 -82.7,-50.4 l -19.5,15.7 c 16.6,33 42.3,62.7 75.2,84 32.7,21.5 72.8,34 113.4,33.5 40.5,-0.4 81.4,-13.1 113.6,-38 32.3,-24.4 55.6,-61.2 60,-99.6 l -23.8,-7.8"
         style="fill:#102048;fill-opacity:1;fill-rule:nonzero;stroke:none"
         id="path62" /><path
         d="m 19728.5,9930.3 464.1,-9.7 c 0,0 -257.3,-349 -446.3,-24.2 l -17.8,33.9"
         style="fill:#ffffff;fill-opacity:1;fill-rule:nonzero;stroke:none"
         id="path64" /><path
         d="m 21308.4,10265.7 c 0.2,40 7.3,80.2 21.7,119.1 14.1,38.7 36.7,76.4 70.2,106.2 33,29.8 79.7,48.7 125.3,46.4 45.7,-1.4 86.1,-21.9 116.5,-48.8 l -12.5,-21.7 c -36.2,11 -71,18.3 -102.9,14.4 -31.7,-3.8 -60,-17.1 -84.5,-38.2 -24.8,-21 -45,-49.8 -62.5,-81 -17.4,-31.5 -31.6,-65.7 -46.8,-101.2 l -24.5,4.8"
         style="fill:#e28b6d;fill-opacity:1;fill-rule:nonzero;stroke:none"
         id="path66" /><path
         d="m 20730,9799.7 c -180.6,0 -326.9,146.4 -326.9,326.9 0,180.6 146.3,326.9 326.9,326.9 180.5,0 326.9,-146.3 326.9,-326.9 0,-180.5 -146.4,-326.9 -326.9,-326.9"
         style="fill:#f69e76;fill-opacity:1;fill-rule:nonzero;stroke:none"
         id="path68" /><path
         d="m 19340.4,9858.6 v 0 c -21.6,125.8 -30.2,263.5 -30.3,403.2 0,75.7 2.5,152.1 6.8,227.5 145,-33.7 252.9,-163.3 252.9,-318.5 0,-146.3 -96.8,-270.4 -229.4,-312.2"
         style="fill:#f69e76;fill-opacity:1;fill-rule:nonzero;stroke:none"
         id="path70" /><path
         d="m 12992.5,11530.9 c 0,0 930.8,-455.5 758.2,-1211.4 l -615.5,-172.3 -142.7,1383.7"
         style="fill:#102048;fill-opacity:1;fill-rule:nonzero;stroke:none"
         id="path72" /><path
         d="m 12992.5,11530.9 c 100,98.4 612.1,664.4 594.3,1371.7 -13.6,536.4 224.2,294.1 254.8,-76 0,0 130.8,757 491.4,680.3 l -105.9,-145.1 c 0,0 136.7,256.4 247,187.8 110.4,-68.6 10.4,-288 10.4,-288 0,0 51.5,190.2 146.1,204.7 94.6,14.5 181.4,-283.4 -30.2,-1061 0,0 229.3,227.3 319.8,265.6 90.6,38.4 84.5,-556.5 -558.1,-1189.6 -642.5,-633.1 -1097.1,-1122.7 -1097.1,-1122.7 l -272.5,1172.3"
         style="fill:#f9b384;fill-opacity:1;fill-rule:nonzero;stroke:none"
         id="path74" /><path
         d="m 9242.3,8429.6 c 22.58,-34.9 3750.2,3101.3 3750.2,3101.3 L 13750.7,10319.5 9945.91,5839.1 9242.3,8429.6"
         style="fill:#708cd5;fill-opacity:1;fill-rule:nonzero;stroke:none"
         id="path76" /><path
         d="m 14339.6,13501.8 c -44.4,-68.5 -85.5,-139.7 -123.3,-212.1 -37.2,-72.7 -72.5,-146.4 -101.9,-222.4 -31.2,-75.3 -56.2,-152.9 -77,-231.6 l -15.3,-59.1 -11.8,-60 c -10.1,-39.7 -12.2,-80.5 -19.9,-121 l -16.6,0.9 c 1,83 8.6,166.6 27.3,247.9 18.4,81.3 42.6,161.5 74.1,238.6 32.1,76.8 67.3,152.4 109.6,224.1 42,71.8 87.9,141 141.6,204.9 l 13.2,-10.2"
         style="fill:#e28b6d;fill-opacity:1;fill-rule:nonzero;stroke:none"
         id="path78" /><path
         d="m 14492.6,13259.5 c -12.4,-67.6 -27,-134.7 -42,-201.6 -14.4,-67.1 -31.7,-133.5 -47,-200.3 l -50.8,-199.3 c -17.8,-66.2 -35.6,-132.4 -55.5,-198.2 l -16.3,3.5 c 8.9,68.4 22,135.9 35.6,203.3 14.2,67.2 29.8,134.1 46,200.8 17.6,66.4 33.8,133.1 53.1,199 18.9,66.1 38.4,131.9 60.8,197.1 l 16.1,-4.3"
         style="fill:#e28b6d;fill-opacity:1;fill-rule:nonzero;stroke:none"
         id="path80" /><path
         d="m 14718.7,13435.6 c 24.3,-233.2 13.7,-468.5 -20.8,-700.5 -9.4,-57.8 -19.4,-115.7 -33.4,-172.8 -6.6,-28.7 -13.7,-57.2 -21.9,-85.4 l -5.9,-21.3 -2.7,-9.9 c 0.4,1 0.2,3.4 -0.8,4.9 -1.3,3.2 -6.9,4.1 -9.7,2 l 14.9,13.2 c 43.7,38.7 87.8,77 132.5,114.7 l 67.8,55.9 c 12,9.5 21.9,17.6 36.1,28 20,13.7 48.9,11.3 66.5,-5.8 8.9,-7.4 14.8,-22.1 15.8,-30 l 4.3,-22.7 c 1.6,-15.1 4.2,-30.3 4.4,-45.5 0.9,-15.1 1.4,-30.3 0.5,-45.3 -0.3,-15.2 -0.9,-30.2 -2.9,-45.1 -5.3,-59.9 -19.4,-118.2 -37.4,-174.7 -36.7,-113 -89.8,-219.2 -151.7,-319.2 -62.3,-99.7 -133.2,-193.3 -207.6,-283.6 -37.6,-44.9 -77.8,-87.4 -116.5,-131.2 l -122.3,-125.5 -11.9,11.7 117,129.3 c 36.8,44.9 75.1,88.6 110.7,134.4 71.8,91 140,184.9 199.1,284.1 58.1,99.6 110.5,202.9 144.6,312.1 16.9,54.4 30,110.2 34.6,166.5 1.8,14 2.2,28.1 2.4,42.1 0.7,14.1 0.1,28 -0.7,41.9 -0.3,14 -2.8,27.6 -4.3,41.4 l -3.9,20.2 c -1.2,6.5 -1.5,5.9 -3.4,8.3 -3.4,3.5 -10,4.3 -14.2,1.3 l -33.1,-25.4 -67.4,-54.8 c -44.6,-37.1 -88.7,-75 -132.5,-113.3 l -17.9,-15.4 c -14.6,-11.7 -39.1,-6.4 -47.8,9.5 -4.9,7.7 -5.9,18 -3.7,25.9 l 3.1,11.2 5.9,20.8 c 8.2,27.7 15.5,55.6 22.1,83.7 13.7,56.1 25.1,112.8 35.5,169.7 19.6,114.1 32.2,229.5 39.2,345.3 7,115.6 9.6,232.1 0.8,347.6 l 16.6,1.7"
         style="fill:#e28b6d;fill-opacity:1;fill-rule:nonzero;stroke:none"
         id="path82" /><path
         d="m 7737.05,5706.4 c 0,0 -1287.89,508 -1813.83,-463.9 -661.32,-1222.1 332.36,-2658.2 332.36,-2658.2 h 1748.03 l -266.56,3122.1"
         style="fill:#fbc343;fill-opacity:1;fill-rule:nonzero;stroke:none"
         id="path84" /><path
         d="m 6476.28,5305.7 c -32.83,-34 -60.82,-72.4 -85.97,-112.4 -25.36,-39.9 -46.32,-82.6 -65.35,-126 -37.75,-86.9 -66.52,-177.9 -86.46,-270.7 -40.19,-185.8 -53.03,-377.1 -44.11,-567 8.29,-190.2 40.23,-379 87.7,-563.5 48.46,-184.5 115.78,-363.9 195.84,-537.9 l -14.9,-7.4 c -21.82,42.8 -44.88,85.2 -64.41,129.3 -9.95,21.9 -20.75,43.5 -30.03,65.7 l -28.26,66.6 c -35.41,89.8 -67.31,181 -94.17,273.8 -52.28,186 -85.9,377.9 -94.16,571.4 -8.39,193.3 5.53,388.5 51.43,577.1 22.73,94.2 53.9,186.7 95.26,274.6 21.24,43.7 44.41,86.6 72.09,126.7 27.28,40.3 58.06,78.4 93.9,111.7 l 11.6,-12"
         style="fill:#102048;fill-opacity:1;fill-rule:nonzero;stroke:none"
         id="path86" /><path
         d="m 11059.1,9968.6 c 422.4,-257.8 714.3,-104.5 799.6,173.7 85.3,278.1 397.1,1326.1 -906.2,1157.1 0,0 -1597.17,644 -2273.02,-306.1 -596.23,-838.1 -49.18,-1417.5 -960.2,-2112.4 -635.25,-484.6 -1355.41,-1336 73.15,-2792.1 l 1549.37,426.9 1717.3,3452.9"
         style="fill:#ae5140;fill-opacity:1;fill-rule:nonzero;stroke:none"
         id="path88" /><path
         d="m 10577.9,8753.4 c 31.6,-147.4 373.4,-529.2 510.1,-672.5 413.5,-432.9 504.7,-1245.2 -674.1,-1493.4 l -663.19,1544.8 827.19,621.1"
         style="fill:#6f3428;fill-opacity:1;fill-rule:nonzero;stroke:none"
         id="path90" /><path
         d="m 10636.7,8560.2 -139.4,-641.7 -216.6,-998.7 -1208.98,255.4 284.44,1958.6 1232.84,-552.2 47.7,-21.4"
         style="fill:#f9b384;fill-opacity:1;fill-rule:nonzero;stroke:none"
         id="path92" /><path
         d="m 11380.6,9829.1 c 0,0 348.9,-391.2 336.6,-490.7 -12.3,-99.6 -336.6,-278 -336.6,-278 v 768.7"
         style="fill:#e28b6d;fill-opacity:1;fill-rule:nonzero;stroke:none"
         id="path94" /><path
         d="m 10636.7,8560.2 -139.4,-641.7 c -371.9,197.8 -643.07,687.4 -643.07,687.4 l 734.77,-24.3 47.7,-21.4"
         style="fill:#e28b6d;fill-opacity:1;fill-rule:nonzero;stroke:none"
         id="path96" /><path
         d="m 11462.3,8938.9 c -49,-371.8 -172.7,-657.5 -437.1,-683.1 -730.9,-70.8 -1782.9,747.9 -1782.9,747.9 l 56.72,1499.4 794.88,490.4 1286.5,-238.8 c 15.4,-169.3 94.3,-687 107.1,-1207.7 5.1,-209.8 -0.5,-420 -25.2,-608.1"
         style="fill:#f9b384;fill-opacity:1;fill-rule:nonzero;stroke:none"
         id="path98" /><path
         d="m 11582.6,10503.1 -158.6,-122.2 c -826.9,645.2 -655.5,-284.2 -732.3,-581.9 -76.7,-297.6 -468.6,-219.2 -774.36,-26.8 l -54.58,-416.7 -918.97,-29 -53.3,1164.6 916.4,716.4 1696.41,-330.9 79.3,-373.5"
         style="fill:#ae5140;fill-opacity:1;fill-rule:nonzero;stroke:none"
         id="path100" /><path
         d="m 10395.4,6178.8 c 451.4,242.2 323.4,874.2 147.7,1090.5 -175.7,216.3 -922.34,579.2 -1012.9,1260.2 -50.37,378.8 332.56,826 332.56,826 l -776.82,416.8 -796.01,-1251.5 600.56,-2149.3 1504.91,-192.7"
         style="fill:#ae5140;fill-opacity:1;fill-rule:nonzero;stroke:none"
         id="path102" /><path
         d="m 10957.8,2710 -3788.82,-2.6 c -165.45,2426 439.22,3666.5 962.04,4275.9 329.2,383.4 826.42,573.1 1327.91,511.7 436.24,-53.7 814.87,-261 1198.67,-1164.2 L 8864.05,5496.7 10015.4,3469.5 c 115.6,-203.9 283.2,-373.6 485.3,-492.1 l 457.1,-267.4"
         style="fill:#708cd5;fill-opacity:1;fill-rule:nonzero;stroke:none"
         id="path104" /><path
         d="m 8864.05,5496.7 c 0,0 563.76,-2256.5 772.7,-2553.4 217.53,-309.2 684.55,-231.5 1498.45,-233.3 2520.7,-5.4 0,0 0,0 L 10107,5000.8 8864.05,5496.7"
         style="fill:#1f3c88;fill-opacity:1;fill-rule:nonzero;stroke:none"
         id="path106" /><path
         d="m 13463.8,3323.4 -163,-599.6 -2165.6,-13.8 h -177.4 l -457.1,267.4 c -202.1,118.5 -369.7,288.2 -485.3,492.1 l -1151.35,2027.2 1793.55,834.1 c 192.8,-452.4 386.4,-1080.1 588.9,-1950 27.3,-117.3 108.8,-215.4 219.2,-263.6 l 1998.1,-793.8"
         style="fill:#708cd5;fill-opacity:1;fill-rule:nonzero;stroke:none"
         id="path108" /><path
         d="m 10107,9607.3 c -65.1,361.3 -493.79,409.1 -568.42,165 -74.62,-244.1 -56.41,-663.5 481.92,-638.6 l 86.5,473.6"
         style="fill:#f9b384;fill-opacity:1;fill-rule:nonzero;stroke:none"
         id="path110" /><path
         d="m 9934.97,9578.9 -67.1,76.6 c -22.29,23.9 -45.38,46.9 -69.41,60.6 -24.5,13.7 -43.91,17.6 -66.44,5.6 -23.08,-11.8 -45.19,-36.8 -68.09,-62.4 l -22.37,11.2 c 9.53,35.1 25.11,71.3 60.11,98.4 16.75,14.1 41.62,21.7 65.44,21.9 23.95,-1.2 46.12,-8.7 63.63,-19.9 35.73,-21.9 60.27,-51.3 80.32,-82 19.93,-30.8 35.42,-63.4 45.8,-97.9 l -21.89,-12.1"
         style="fill:#e28b6d;fill-opacity:1;fill-rule:nonzero;stroke:none"
         id="path112" /><path
         d="m 11443.5,8820.3 c 7.2,38.4 13.5,78 18.8,118.6 7.7,58.4 13.5,118.8 17.7,180.8 0.3,0.1 0.6,0.3 0.8,0.5 -6.8,-108.9 -18.5,-214.3 -37.3,-299.9"
         style="fill:#8986bc;fill-opacity:1;fill-rule:nonzero;stroke:none"
         id="path114" /><path
         d="m 11480,9119.7 c 4.5,65.4 7.2,132.4 8.4,200.2 -1,-65.5 -3.4,-133.3 -7.6,-199.7 -0.2,-0.2 -0.5,-0.4 -0.8,-0.5 m 7.5,425.3 c 0,0.7 0,1.3 0,2 0,-0.7 0,-1.3 0,-2"
         style="fill:#e48569;fill-opacity:1;fill-rule:nonzero;stroke:none"
         id="path116" /><path
         d="m 11442,8819.8 c -29.6,0 -360.7,100.9 -360.7,418.7 0,172.7 151.2,320 323.9,320 28.5,0 56.3,-3.8 82.3,-11.5 v 0 c 0,-0.7 0,-1.3 0,-2 1.6,-66.8 2.3,-144.2 0.9,-225.1 -1.2,-67.8 -3.9,-134.8 -8.4,-200.2 -4.2,-62 -10,-122.4 -17.7,-180.8 -5.3,-40.6 -11.6,-80.2 -18.8,-118.6 -0.1,-0.1 -0.1,-0.2 -0.1,-0.4 -0.4,-0.1 -0.8,-0.1 -1.4,-0.1"
         style="fill:#f7a57b;fill-opacity:1;fill-rule:nonzero;stroke:none"
         id="path118" /><path
         d="m 17689.1,2686.8 h -4507.2 l 851.4,3667.2 h 4507.2 l -851.4,-3667.2"
         style="fill:#1f3c88;fill-opacity:1;fill-rule:nonzero;stroke:none"
         id="path120" /><path
         d="m 17689.1,2686.8 h -4507.2 c 2156,355.6 4070.3,686 5358.6,3667.2 l -666.6,-2871 c -2.7,-1.7 -5.4,-3.4 -8.1,-5.1 -249.5,-159.5 -608.1,-356.5 -837.1,-535.6 -103.6,-80.6 -32,-243.5 38,-243.5 l 625.6,2.1 -3.2,-14.1"
         style="fill:#162b62;fill-opacity:1;fill-rule:nonzero;stroke:none"
         id="path122" /><path
         d="m 16110.5,4415.9 c -68.6,-163.7 -235.9,-249.5 -373.5,-191.8 -137.8,57.8 -193.7,237.2 -125.1,400.9 68.6,163.6 235.9,249.5 373.6,191.7 137.7,-57.7 193.7,-237.2 125,-400.8"
         style="fill:#ffffff;fill-opacity:1;fill-rule:nonzero;stroke:none"
         id="path124" /><path
         d="m 23275.5,5399 -13.6,-372.7 -61.4,-1670.4 v -2.1 c -5.1,-126.2 -38.4,-248.2 -95.1,-358.2 -56.8,-109.2 -137.8,-206.4 -238.4,-283.6 h -1878 l -3922.3,-13.2 c -70,0 -141.6,162.9 -38,243.5 229,179.1 587.6,376.1 837.1,535.6 137.7,87.8 301.9,126.2 463.9,105.3 270,-34.5 659.3,-171.4 1143.7,-28.6 84,24.8 169.3,44 255.5,57.2 l 1578.6,242.6 621.3,95.5 17.5,1052.5 5.6,318.5 c 59.2,15.8 119.8,29.9 182.1,42.3 326.2,64.8 698.4,84.8 1141.5,35.8"
         style="fill:#f9b384;fill-opacity:1;fill-rule:nonzero;stroke:none"
         id="path126" /><path
         d="m 23261.9,5026.3 c -213.6,75 -996,298.5 -1260.1,298.5 -19.7,0 -36.5,-1.2 -49.9,-3.9 59.2,15.8 119.8,29.9 182.1,42.3 202.1,40.1 421.9,63.1 665.2,63.1 149.5,0 307.8,-8.7 476.3,-27.3 l -13.6,-372.7"
         style="fill:#eb9b76;fill-opacity:1;fill-rule:nonzero;stroke:none"
         id="path128" /><path
         d="m 22867,2712 h -570.6 c 85.1,467.8 399.8,660.8 731.5,660.8 57.4,0 115.2,-5.7 172.6,-16.9 v -2.1 c -5.1,-126.2 -38.4,-248.2 -95.1,-358.2 -56.8,-109.2 -137.8,-206.4 -238.4,-283.6"
         style="fill:#f69e76;fill-opacity:1;fill-rule:nonzero;stroke:none"
         id="path130" /><path
         d="m 21690.3,3925.8 c 66.7,26.9 136.7,49.7 209.4,58.1 72.2,11.3 146.1,10.8 218.8,3 72.8,-7.7 144.5,-24.7 212.8,-50.4 68.6,-25.2 133.3,-59 191.7,-104 l -13.8,-20.8 c -62.7,29.2 -129.2,52.3 -195.4,71.4 -66.5,19 -134.2,33 -202.6,40.5 -68.2,8.1 -137.2,10.7 -206.1,6 -69.2,-2.8 -137.6,-15.1 -207.1,-27.6 l -7.7,23.8"
         style="fill:#e28b6d;fill-opacity:1;fill-rule:nonzero;stroke:none"
         id="path132" /><path
         d="M 26361.3,2204 H 3600 v 504.3 H 26361.3 V 2204"
         style="fill:#d3dfff;fill-opacity:1;fill-rule:nonzero;stroke:none"
         id="path134" /><path
         d="m 3600,2677.4 h 22761.3 v 60 H 3600 Z"
         style="fill:#102048;fill-opacity:1;fill-rule:nonzero;stroke:none"
         id="path136" /><path
         d="M 7006.23,11597.6 C 6831.55,12540.2 5925.84,13162.7 4983.28,12988 4040.71,12813.3 3418.22,11907.6 3592.91,10965.1 3767.59,10022.5 4673.29,9400 5615.85,9574.7 c 235.89,43.7 451.73,133.2 640.04,257.6 l 600.46,-261.8 -288.94,525.5 c 362.89,388.8 543.17,938.6 438.82,1501.6"
         style="fill:#c6eae9;fill-opacity:1;fill-rule:nonzero;stroke:none"
         id="path138" /><path
         d="m 4649.98,10675.5 v 528.1 l -30.8,-15.3 c -31.65,-15.7 -65.89,-23.7 -101.77,-23.7 -127.33,0 -230.92,103.6 -230.92,231 0,127.5 103.59,231.2 230.92,231.2 35.73,0 70.01,-7.9 101.9,-23.5 l 30.67,-14.9 v 527.5 h 457.35 c -7.18,-24.5 -10.82,-49.9 -10.82,-76 0,-151 122.85,-273.8 273.85,-273.8 151,0 273.84,122.8 273.84,273.8 0,26.1 -3.63,51.5 -10.82,76 h 457.36 v -461.5 c -28.51,10 -58.63,15 -89.91,15 -151,0 -273.85,-122.8 -273.85,-273.8 0,-150.9 122.85,-273.6 273.85,-273.6 30.61,0 61.17,5.3 89.91,15.3 v -461.8 H 4649.98"
         style="fill:#ffffff;fill-opacity:1;fill-rule:nonzero;stroke:none"
         id="path140" /><path
         d="m 6112.07,12137.3 h -508.94 c 12.8,-30.1 19.75,-62.9 19.75,-97.4 0,-139.3 -113.19,-252.5 -252.52,-252.5 -139.33,0 -252.52,113.2 -252.52,252.5 0,34.5 6.95,67.3 19.74,97.4 h -508.93 v -514.8 c -33.65,16.4 -71.19,25.6 -111.24,25.6 -139.33,0 -252.24,-112.9 -252.24,-252.5 0,-139.4 112.91,-252.3 252.24,-252.3 40.05,0 77.59,9.2 111.24,25.9 v -515.1 h 1483.42 v 515.4 c -33.38,-16.7 -71.2,-26.2 -111.24,-26.2 -139.61,0 -252.52,112.9 -252.52,252.3 0,139.6 112.91,252.5 252.52,252.5 40.04,0 77.86,-9.2 111.24,-25.9 z m -42.65,-42.7 v -411.8 c -22.15,5.3 -45.07,7.9 -68.59,7.9 -162.76,0 -295.17,-132.4 -295.17,-295.1 0,-162.6 132.41,-294.9 295.17,-294.9 23.1,0 46.19,2.7 68.59,8.2 v -412.1 H 4671.29 v 472.4 68.7 l -61.58,-30.5 c -28.67,-14.2 -59.73,-21.4 -92.3,-21.4 -115.57,0 -209.6,94 -209.6,209.6 0,115.7 94.03,209.8 209.6,209.8 32.46,0 63.6,-7.1 92.55,-21.2 l 61.33,-29.9 v 68.2 472.1 h 409 c -3.39,-17.9 -5.09,-36.1 -5.09,-54.7 0,-162.7 132.4,-295.1 295.16,-295.1 162.75,0 295.16,132.4 295.16,295.1 0,18.6 -1.71,36.8 -5.1,54.7 h 409"
         style="fill:#8cbfbe;fill-opacity:1;fill-rule:nonzero;stroke:none"
         id="path142" /><path
         d="m 23518.4,11576.7 c 57.8,956.8 880.4,1685.7 1837.3,1627.9 956.8,-57.8 1685.7,-880.4 1627.9,-1837.3 -57.8,-956.8 -880.4,-1685.7 -1837.3,-1627.9 -239.4,14.5 -464.6,76.9 -666.7,177.3 l -563.9,-333.5 222.3,557 c -407.8,341.3 -654.1,864.9 -619.6,1436.5"
         style="fill:#d3dfff;fill-opacity:1;fill-rule:nonzero;stroke:none"
         id="path144" /><path
         d="m 25546.4,10740.1 c -45.2,94.5 -140.3,154.9 -246,154.9 -105.7,0 -200.7,-60.4 -245.5,-154.9 h -476 v 527.7 l -28.9,-14.5 c -31.9,-15.9 -66.3,-24 -102.3,-24 -128.2,0 -232.5,104.2 -232.5,232.2 0,128.2 104.3,232.5 232.5,232.5 36.3,0 70.8,-7.9 102.3,-23.7 l 28.9,-14.5 v 527.4 h 511.6 l -9.3,26.7 c -8.7,24.6 -13.1,50.5 -13.1,76.8 0,128.2 104.2,232.5 232.3,232.5 128.2,0 232.5,-104.3 232.5,-232.5 0,-26.3 -4.4,-52.2 -13.1,-76.8 l -9.3,-26.7 h 511.6 v -1443.1 h -475.7"
         style="fill:#ffffff;fill-opacity:1;fill-rule:nonzero;stroke:none"
         id="path146" /><path
         d="m 25300.4,12539.2 c -139.4,0 -252.3,-113.2 -252.3,-252.5 0,-29.2 5,-57.3 14.2,-83.5 h -503.4 v -515 c -33.3,16.7 -71.2,25.8 -111.2,25.8 -139.6,0 -252.5,-112.9 -252.5,-252.5 0,-139.3 112.9,-252.2 252.5,-252.2 40,0 77.9,9.4 111.2,26.1 v -515.3 h 509 c 37.8,90.9 127.6,154.9 232.5,154.9 105.1,0 194.9,-64 233,-154.9 h 508.7 v 1483.1 h -503.4 c 9.2,26.2 14.2,54.3 14.2,83.5 0,139.3 -112.9,252.5 -252.5,252.5 z m 0,-40 c 117.1,0 212.5,-95.4 212.5,-212.5 0,-24.1 -4,-47.7 -11.9,-70.2 l -18.7,-53.3 h 56.4 463.4 v -1403.1 h -443.4 c -50.5,94.9 -149.2,154.9 -258.3,154.9 -109.2,0 -207.6,-60 -257.9,-154.9 h -443.6 v 475.3 64.7 l -57.9,-28.9 c -29,-14.5 -60.5,-21.9 -93.3,-21.9 -117.2,0 -212.5,95.2 -212.5,212.2 0,117.2 95.3,212.5 212.5,212.5 33.2,0 64.6,-7.2 93.3,-21.6 l 57.9,-28.9 v 64.7 475 h 463.4 56.4 l -18.7,53.3 c -7.9,22.5 -11.9,46.1 -11.9,70.2 0,117.1 95.2,212.5 212.3,212.5"
         style="fill:#708cd5;fill-opacity:1;fill-rule:nonzero;stroke:none"
         id="path148" /><path
         d="m 14665.9,14599.5 v 47.9 c 0,153.8 68.3,298.3 180.1,411.4 102.2,103.3 164.6,241 164.6,392.5 0,320.8 -279.3,580.9 -623.7,580.9 -10.4,0 -20.8,-0.2 -31.4,-0.7 -318.1,-14.5 -578.5,-258.8 -591.8,-555.2 -7.5,-165.4 59.5,-316.1 172.2,-425.7 119.5,-116.3 192.9,-267 192.9,-428 v -23.1 c -413.4,113.2 -717.4,526.1 -717.4,975.5 0,538.7 436.7,975.4 975.5,975.4 538.7,0 975.4,-436.7 975.4,-975.4 0,-437.7 -299.3,-852 -696.4,-975.5"
         style="fill:#fef3d9;fill-opacity:1;fill-rule:nonzero;stroke:none"
         id="path150" /><path
         d="m 14344.2,16800.3 h 85.301 v 728.348 h -85.301 z"
         style="fill:#fbc343;fill-opacity:1;fill-rule:nonzero;stroke:none"
         id="path152" /><path
         d="m 13729.1,16627.7 -638.4,476.6 -51,-68.4 638.4,-476.5"
         style="fill:#fbc343;fill-opacity:1;fill-rule:nonzero;stroke:none"
         id="path154" /><path
         d="m 15095.6,16559.4 638.4,476.5 -51,68.4 -638.4,-476.6"
         style="fill:#fbc343;fill-opacity:1;fill-rule:nonzero;stroke:none"
         id="path156" /><path
         d="m 14079.1,16743.9 -133.2,341.7 -79.5,-31 133.2,-341.7"
         style="fill:#fbc343;fill-opacity:1;fill-rule:nonzero;stroke:none"
         id="path158" /><path
         d="m 14774.1,16712.9 133.2,341.7 -79.5,31 -133.1,-341.7"
         style="fill:#fbc343;fill-opacity:1;fill-rule:nonzero;stroke:none"
         id="path160" /><path
         d="m 15010.6,15451.3 c 0,330.5 -296.3,596.6 -655.1,580.2 -318.1,-14.5 -578.5,-258.8 -591.8,-555.2 -7.5,-165.4 59.5,-316.1 172.2,-425.7 119.5,-116.3 192.9,-267 192.9,-428 v -23.1 h 537.1 v 47.9 c 0,153.8 68.3,298.3 180.1,411.4 102.2,103.3 164.6,241 164.6,392.5"
         style="fill:#fbc343;fill-opacity:1;fill-rule:nonzero;stroke:none"
         id="path162" /><path
         d="m 14386.9,14122.5 v 0 c -148.4,0 -268.6,120.3 -268.6,268.6 v 13.2 h 537.1 v -13.2 c 0,-148.3 -120.2,-268.6 -268.5,-268.6"
         style="fill:#fbc343;fill-opacity:1;fill-rule:nonzero;stroke:none"
         id="path164" /><path
         d="m 14186.8,15389.4 c -81.5,0 -147.5,66 -147.5,147.5 0,81.4 66,147.4 147.5,147.4 81.4,0 147.5,-66 147.5,-147.4 0,-81.5 -66.1,-147.5 -147.5,-147.5"
         style="fill:#fef3d9;fill-opacity:1;fill-rule:nonzero;stroke:none"
         id="path166" /><path
         d="m 19773.5,13970.3 v 330.3 h -157.6 c -20.4,92.9 -57.6,179.5 -108.4,256.5 l 113,113 -233.5,233.5 -115.8,-115.7 c -76.6,47.8 -162.2,82.7 -253.7,101.2 v 167.5 h -330.3 v -173.3 c -88,-21 -170.2,-57 -243.7,-105.4 l -125.7,125.7 -233.6,-233.5 128.5,-128.5 c -45.6,-73.1 -79.3,-154.3 -98.3,-241 h -183.2 v -330.3 h 183.2 c 19,-86.7 52.7,-167.9 98.3,-240.9 l -128.5,-128.6 233.6,-233.5 125.7,125.7 c 73.5,-48.4 155.7,-84.4 243.7,-105.4 v -173.3 h 330.3 v 167.5 c 91.5,18.5 177.1,53.4 253.7,101.3 l 115.8,-115.8 233.5,233.5 -113,113 c 50.8,77 88,163.6 108.4,256.5 h 157.6"
         style="fill:#f0f0f0;fill-opacity:1;fill-rule:nonzero;stroke:none"
         id="path168" /><path
         d="m 19367.8,14135.4 c 0,-284.6 -230.7,-515.4 -515.4,-515.4 -284.7,0 -515.5,230.8 -515.5,515.4 0,284.7 230.8,515.5 515.5,515.5 284.7,0 515.4,-230.8 515.4,-515.5"
         style="fill:#ffffff;fill-opacity:1;fill-rule:nonzero;stroke:none"
         id="path170" /><path
         d="m 21451.6,14491.5 74.2,227.4 -108.5,35.4 c 6.8,68.5 0.6,136.5 -17,201 l 103.1,52.3 -108.3,213.3 -105.6,-53.7 c -42.1,50.2 -93.2,93.5 -152,126.7 l 37.7,115.4 -227.4,74.2 -39,-119.3 c -65.3,5.4 -130,-1 -191.5,-17.8 l -58.3,114.8 -213.3,-108.3 59.6,-117.3 c -47.8,-40.1 -89.3,-88.4 -121.9,-143.8 l -126.1,41.1 -74.2,-227.4 126.1,-41.1 c -6.3,-64 -1.4,-127.5 13.6,-188 l -117.4,-59.6 108.3,-213.3 114.8,58.3 c 39.8,-49.8 88.3,-93.1 144.2,-127.4 l -39,-119.3 227.4,-74.2 37.7,115.3 c 67.1,-7.8 133.9,-3.1 197.4,12.7 l 53.7,-105.7 213.2,108.3 -52.3,103.1 c 52.2,41.7 97.3,92.9 132.2,152.3 l 108.6,-35.4"
         style="fill:#f0f0f0;fill-opacity:1;fill-rule:nonzero;stroke:none"
         id="path172" /><path
         d="m 21209.3,14696.3 c -63.9,-196 -274.7,-303 -470.7,-239 -196,64 -303.1,274.7 -239.1,470.8 64,196 274.8,303 470.8,239 196,-64 303,-274.7 239,-470.8"
         style="fill:#ffffff;fill-opacity:1;fill-rule:nonzero;stroke:none"
         id="path174" /><path
         d="m 10916.8,13826.1 166.5,227.4 -108.5,79.5 c 32.8,74.3 50.8,152.7 54.7,231.3 l 134.7,20.8 -43,278.6 -138,-21.4 c -28.7,71.7 -70,138.8 -123.7,197.7 l 84.5,115.4 -227.4,166.5 -87.4,-119.4 c -71.2,30 -146,46.6 -221,50.4 l -23.2,149.9 -278.6,-43 23.7,-153.3 c -68.3,-27.3 -132.4,-66.2 -189.24,-116.3 l -126.12,92.4 -166.54,-227.4 126.13,-92.4 c -30.59,-69.3 -48.36,-142.2 -53.78,-215.5 l -153.28,-23.7 43.03,-278.6 149.96,23.2 c 26.19,-70.4 64.62,-136.7 114.69,-195.5 l -87.42,-119.4 227.37,-166.5 84.5,115.4 c 72.3,-33.5 148.9,-52.6 225.8,-58.3 l 21.3,-138.1 278.6,43.1 -20.8,134.7 c 73.7,27.5 143,68.3 203.9,122 l 108.6,-79.5"
         style="fill:#f0f0f0;fill-opacity:1;fill-rule:nonzero;stroke:none"
         id="path176" /><path
         d="m 10720.7,14144.4 c -143.6,-196 -418.9,-238.6 -614.9,-95 -196.01,143.5 -238.55,418.9 -95,614.9 143.6,196 418.9,238.5 614.9,95 196,-143.6 238.6,-418.9 95,-614.9"
         style="fill:#ffffff;fill-opacity:1;fill-rule:nonzero;stroke:none"
         id="path178" /><path
         d="m 8879.95,14322.4 165.77,119.1 -56.86,79.1 c 39.26,43.8 69.31,93.7 89.68,147 l 97.43,-16 32.97,201.5 -99.84,16.3 c -3.61,55.8 -17,111.3 -40.73,163.9 l 84.11,60.4 -119.14,165.8 -87.01,-62.5 c -42.28,36.6 -90.05,64.9 -140.85,84.3 l 17.76,108.5 -201.46,32.9 -18.15,-110.8 c -53.14,-3.5 -106.06,-15.9 -156.44,-37.6 l -66.08,92 -165.76,-119.2 66.07,-91.9 c -36.63,-40.8 -65.25,-87.1 -85.46,-136.3 l -110.86,18.1 -32.98,-201.4 108.46,-17.8 c 2.21,-54.3 13.77,-108.6 35.02,-160.4 l -87.01,-62.5 119.13,-165.8 84.11,60.5 c 42.28,-39.3 90.65,-69.7 142.34,-90.9 l -16.34,-99.8 201.45,-33 15.95,97.4 c 56.97,2.4 113.88,14.9 167.87,38.2 l 56.85,-79.1"
         style="fill:#f0f0f0;fill-opacity:1;fill-rule:nonzero;stroke:none"
         id="path180" /><path
         d="m 8816.48,14585.6 c -142.89,-102.7 -341.99,-70.1 -444.69,72.8 -102.7,142.9 -70.11,342 72.79,444.7 142.9,102.7 341.99,70.1 444.69,-72.8 102.7,-142.9 70.11,-342 -72.79,-444.7"
         style="fill:#ffffff;fill-opacity:1;fill-rule:nonzero;stroke:none"
         id="path182" /></g></g></svg>
